<svg width="175" height="100" xmlns="http://www.w3.org/2000/svg" xmlns:sketch="http://www.bohemiancoding.com/sketch/ns"><title>logo</title><desc>Created with Sketch.</desc><path d="M71.067 45.156h-7.818v-37.712c0-2.385-1.922-4.318-4.293-4.318-2.371 0-4.293 1.933-4.293 4.318v83.882c0 2.385 1.922 4.318 4.293 4.318 2.371 0 4.293-1.933 4.293-4.318v-37.534h7.168l22.297 39.533c1.17 2.074 3.79 2.802 5.852 1.625 2.062-1.177 2.785-3.812 1.616-5.887l-22.663-40.182c.026.194.04.392.04.593 0 .759-.194 1.472-.536 2.091l.004.609 23.182-42.361c1.143-2.089.386-4.715-1.691-5.865-2.077-1.15-4.688-.389-5.831 1.701l-21.62 39.507zm-62.481 8.663v37.534l-4.293-4.318h34.079c2.371 0 4.293 1.933 4.293 4.318s-1.922 4.318-4.293 4.318h-34.079c-2.371 0-4.293-1.933-4.293-4.318v-83.882c0-2.385 1.922-4.318 4.293-4.318h34.343c2.371 0 4.293 1.933 4.293 4.318s-1.922 4.318-4.293 4.318h-34.343l4.293-4.318v37.712h20.32c2.371 0 4.293 1.933 4.293 4.318s-1.922 4.318-4.293 4.318h-20.32zm160.157 40.294c1.676-1.686 1.676-4.42 0-6.107-1.676-1.686-4.395-1.686-6.071 0-1.676 1.686-1.676 4.42 0 6.107 1.676 1.686 4.395 1.686 6.071 0zm-61.706-66.778v44.331c0 13.993 11.274 25.335 25.185 25.335 13.91 0 25.185-11.341 25.185-25.335v-44.331c0-13.993-11.274-25.335-25.185-25.335-13.91 0-25.185 11.341-25.185 25.335zm41.785 0v44.331c0 9.224-7.431 16.698-16.599 16.698-9.169 0-16.599-7.475-16.599-16.698v-44.331c0-9.224 7.431-16.698 16.599-16.698 9.169 0 16.599 7.475 16.599 16.698z" sketch:type="MSShapeGroup" fill="none"/></svg>