<?xml version="1.0" encoding="UTF-8" standalone="no"?>
<svg width="175px" height="100px" viewBox="0 0 175 100" version="1.1" xmlns="http://www.w3.org/2000/svg" xmlns:xlink="http://www.w3.org/1999/xlink" xmlns:sketch="http://www.bohemiancoding.com/sketch/ns">
    <!-- Generator: Sketch 3.1 (8751) - http://www.bohemiancoding.com/sketch -->
    <title>logo</title>
    <desc>Created with Sketch.</desc>
    <defs></defs>
    <g id="Page-1" stroke="none" stroke-width="1" fill="none" fill-rule="evenodd" sketch:type="MSPage">
        <g id="Desktop-HD" sketch:type="MSArtboardGroup" transform="translate(-91.000000, -77.000000)">
            <g id="Path-1-+-Hello," sketch:type="MSLayerGroup" transform="translate(91.000000, 78.000000)" fill="#000000" fill-rule="nonzero">
                <g id="Path-1" transform="translate(0.000000, 1.000000)" sketch:type="MSShapeGroup">
                    <path d="M71.0670268,43.1555621 L63.2491582,43.1555621 L63.2491582,43.1555621 L63.2491582,5.44344092 C63.2491582,3.05857496 61.3271483,1.12525911 58.956229,1.12525911 C56.5853096,1.12525911 54.6632997,3.05857496 54.6632997,5.44344092 L54.6632997,89.3257422 C54.6632997,91.7106082 56.5853096,93.643924 58.956229,93.643924 C61.3271483,93.643924 63.2491582,91.7106082 63.2491582,89.3257422 L63.2491582,51.7919258 L70.417168,51.7919258 L92.7139149,91.3249852 C93.883828,93.3992897 96.5039524,94.126865 98.5661265,92.9500701 C100.628301,91.7732752 101.351621,89.1377383 100.181708,87.0634338 L77.5188434,46.8812324 C77.5452688,47.074937 77.5589226,47.2727366 77.5589226,47.473744 C77.5589226,48.2323671 77.3644404,48.9452993 77.0228913,49.5648463 L77.026781,50.174257 L100.208599,7.81369488 C101.351938,5.72445139 100.595035,3.09847378 98.518009,1.94840974 C96.4409833,0.798345689 93.8303623,1.55970106 92.6870238,3.64894455 L71.0670268,43.1555621 L71.0670268,43.1555621 L71.0670268,43.1555621 Z M8.58585859,51.8181818 L8.58585859,89.3519982 L4.29292929,85.0338164 L38.3721834,85.0338164 C40.7431028,85.0338164 42.6651127,86.9671323 42.6651127,89.3519982 C42.6651127,91.7368642 40.7431028,93.6701801 38.3721834,93.6701801 L4.29292929,93.6701801 C1.92200991,93.6701801 0,91.7368642 0,89.3519982 L0,5.46969697 C0,3.084831 1.92200991,1.15151515 4.29292929,1.15151515 L38.6363636,1.15151515 C41.007283,1.15151515 42.9292929,3.084831 42.9292929,5.46969697 C42.9292929,7.85456293 41.007283,9.78787879 38.6363636,9.78787879 L4.29292929,9.78787879 L8.58585859,5.46969697 L8.58585859,43.1818182 L28.9057239,43.1818182 C31.2766433,43.1818182 33.1986532,45.115134 33.1986532,47.5 C33.1986532,49.884866 31.2766433,51.8181818 28.9057239,51.8181818 L8.58585859,51.8181818 L8.58585859,51.8181818 L8.58585859,51.8181818 Z M168.74263,92.1125944 C170.419123,90.4262395 170.419123,87.692118 168.74263,86.0057631 C167.066137,84.3194082 164.348004,84.3194082 162.671511,86.0057631 C160.995018,87.692118 160.995018,90.4262395 162.671511,92.1125944 C164.348004,93.7989493 167.066137,93.7989493 168.74263,92.1125944 L168.74263,92.1125944 Z M107.037037,25.3346683 L107.037037,69.6653317 C107.037037,83.6580217 118.311026,95 132.222222,95 C146.13248,95 157.407407,83.6589884 157.407407,69.6653317 L157.407407,25.3346683 C157.407407,11.3419783 146.133418,0 132.222222,0 C118.311965,0 107.037037,11.3410116 107.037037,25.3346683 L107.037037,25.3346683 Z M148.821549,25.3346683 L148.821549,69.6653317 C148.821549,78.8892156 141.390681,86.3636364 132.222222,86.3636364 C123.053148,86.3636364 115.622896,78.8885747 115.622896,69.6653317 L115.622896,25.3346683 C115.622896,16.1107844 123.053763,8.63636364 132.222222,8.63636364 C141.391296,8.63636364 148.821549,16.1114253 148.821549,25.3346683 L148.821549,25.3346683 Z"></path>
                </g>
            </g>
        </g>
    </g>
</svg>
